sean_ultra_condensed.ufo
<glyph name="exclam" format="1">
  <advance width="290"/>
  <unicode hex="0021"/>
  <outline>
    <contour>
      <point x="152" y="0" type="line"/>
      <point x="152" y="127" type="line"/>
      <point x="129" y="127" type="line"/>
      <point x="129" y="0" type="line"/>
    </contour>
    <contour>
      <point x="129" y="229" type="line"/>
      <point x="151" y="229" type="line"/>
      <point x="151" y="722" type="line"/>
      <point x="129" y="722" type="line"/>
    </contour>
  </outline>
</glyph>
<glyph name="slash" format="1">
  <advance width="509"/>
  <unicode hex="002F"/>
  <outline>
    <contour>
      <point x="66" y="-68" type="line"/>
      <point x="492" y="844" type="line"/>
      <point x="470" y="844" type="line"/>
      <point x="44" y="-68" type="line"/>
    </contour>
  </outline>
</glyph>
<glyph name="nine" format="1">
  <advance width="581"/>
  <unicode hex="0039"/>
  <outline>
    <contour>
      <point x="507" y="482" type="curve"/>
      <point x="507" y="226"/>
      <point x="337" y="85"/>
      <point x="83" y="11" type="curve"/>
      <point x="90" y="-10" type="line"/>
      <point x="354" y="66"/>
      <point x="526" y="216"/>
      <point x="526" y="483" type="curve"/>
      <point x="526" y="633"/>
      <point x="443" y="736"/>
      <point x="299" y="734" type="curve" smooth="yes"/>
      <point x="171" y="734"/>
      <point x="92" y="649"/>
      <point x="92" y="519" type="curve" smooth="yes"/>
      <point x="92" y="388"/>
      <point x="170" y="301"/>
      <point x="299" y="301" type="curve" smooth="yes"/>
      <point x="415" y="301"/>
      <point x="478" y="375"/>
      <point x="524" y="484" type="curve"/>
      <point x="509" y="494" type="line"/>
      <point x="466" y="392"/>
      <point x="409" y="322"/>
      <point x="301" y="322" type="curve" smooth="yes"/>
      <point x="184" y="322"/>
      <point x="114" y="401"/>
      <point x="114" y="520" type="curve" smooth="yes"/>
      <point x="114" y="635"/>
      <point x="183" y="711"/>
      <point x="296" y="711" type="curve" smooth="yes"/>
      <point x="429" y="711"/>
      <point x="507" y="619"/>
    </contour>
  </outline>
</glyph>
<glyph name="A" format="1">
  <advance width="839"/>
  <unicode hex="0041"/>
  <outline>
    <contour>
      <point x="618" y="286" type="line"/>
      <point x="244" y="286" type="line"/>
      <point x="235" y="125" type="line"/>
      <point x="625" y="125" type="line"/>
    </contour>
    <contour>
      <point x="383" y="722" type="line"/>
      <point x="383" y="722"/>
      <point x="612" y="1"/>
      <point x="612" y="1" type="curve"/>
      <point x="815" y="1" type="line"/>
      <point x="575" y="722" type="line"/>
    </contour>
    <contour>
      <point x="302" y="722" type="line"/>
      <point x="30" y="0" type="line"/>
      <point x="234" y="0" type="line"/>
      <point x="234" y="0"/>
      <point x="494" y="722"/>
      <point x="494" y="722" type="curve"/>
    </contour>
  </outline>
</glyph>
<glyph name="E" format="1">
  <advance width="653"/>
  <unicode hex="0045"/>
  <outline>
    <contour>
      <point x="127" y="292" type="line"/>
      <point x="505" y="292" type="line"/>
      <point x="505" y="444" type="line"/>
      <point x="127" y="444" type="line"/>
    </contour>
    <contour>
      <point x="112" y="551" type="line"/>
      <point x="568" y="551" type="line"/>
      <point x="568" y="722" type="line"/>
      <point x="112" y="722" type="line"/>
    </contour>
    <contour>
      <point x="264" y="0" type="line"/>
      <point x="264" y="0"/>
      <point x="264" y="722"/>
      <point x="264" y="722" type="curve"/>
      <point x="62" y="722" type="line"/>
      <point x="62" y="0" type="line"/>
    </contour>
    <contour>
      <point x="112" y="0" type="line"/>
      <point x="602" y="0" type="line"/>
      <point x="602" y="162" type="line"/>
      <point x="112" y="162" type="line"/>
    </contour>
  </outline>
</glyph>
<glyph name="M" format="1">
  <advance width="944"/>
  <unicode hex="004D"/>
  <outline>
    <contour>
      <point x="671" y="722" type="line"/>
      <point x="733" y="0" type="line"/>
      <point x="925" y="0" type="line"/>
      <point x="863" y="722" type="line"/>
    </contour>
    <contour>
      <point x="275" y="722" type="line"/>
      <point x="83" y="722" type="line"/>
      <point x="24" y="0" type="line"/>
      <point x="216" y="0" type="line"/>
    </contour>
    <contour>
      <point x="539" y="0" type="line"/>
      <point x="275" y="722" type="line"/>
      <point x="113" y="722" type="line"/>
      <point x="375" y="0" type="line"/>
    </contour>
    <contour>
      <point x="671" y="722" type="line"/>
      <point x="411" y="0" type="line"/>
      <point x="566" y="0" type="line"/>
      <point x="833" y="722" type="line"/>
    </contour>
  </outline>
</glyph>
<glyph name="P" format="1">
  <advance width="642"/>
  <unicode hex="0050"/>
  <outline>
    <contour>
      <point x="158" y="555" type="line"/>
      <point x="326" y="554" type="line" smooth="yes"/>
      <point x="386" y="554"/>
      <point x="428" y="521"/>
      <point x="428" y="464" type="curve" smooth="yes"/>
      <point x="428" y="407"/>
      <point x="390" y="371"/>
      <point x="332" y="371" type="curve" smooth="yes"/>
      <point x="266" y="371"/>
      <point x="218" y="385"/>
      <point x="160" y="416" type="curve"/>
      <point x="153" y="263" type="line"/>
      <point x="209" y="221"/>
      <point x="260" y="211"/>
      <point x="330" y="211" type="curve" smooth="yes"/>
      <point x="500" y="213"/>
      <point x="625" y="311"/>
      <point x="625" y="473" type="curve" smooth="yes"/>
      <point x="625" y="633"/>
      <point x="498" y="721"/>
      <point x="329" y="721" type="curve" smooth="yes"/>
      <point x="158" y="722" type="line"/>
    </contour>
    <contour>
      <point x="50" y="722" type="line"/>
      <point x="50" y="0" type="line"/>
      <point x="259" y="0" type="line"/>
      <point x="259" y="722" type="line"/>
    </contour>
  </outline>
</glyph>
<glyph name="R" format="1">
  <advance width="747"/>
  <unicode hex="0052"/>
  <outline>
    <contour>
      <point x="282" y="284" type="line"/>
      <point x="494" y="0" type="line"/>
      <point x="720" y="0" type="line"/>
      <point x="501" y="289" type="line"/>
    </contour>
    <contour>
      <point x="60" y="722" type="line"/>
      <point x="60" y="0" type="line"/>
      <point x="254" y="0" type="line"/>
      <point x="254" y="722" type="line"/>
    </contour>
    <contour>
      <point x="73" y="561" type="line"/>
      <point x="358" y="561" type="line" smooth="yes"/>
      <point x="414" y="561"/>
      <point x="451" y="524"/>
      <point x="451" y="468" type="curve" smooth="yes"/>
      <point x="451" y="410"/>
      <point x="415" y="370"/>
      <point x="358" y="370" type="curve" smooth="yes"/>
      <point x="83" y="370" type="line"/>
      <point x="83" y="219" type="line"/>
      <point x="355" y="219" type="line" smooth="yes"/>
      <point x="523" y="219"/>
      <point x="643" y="313"/>
      <point x="643" y="475" type="curve" smooth="yes"/>
      <point x="643" y="632"/>
      <point x="526" y="722"/>
      <point x="362" y="722" type="curve" smooth="yes"/>
      <point x="73" y="722" type="line"/>
    </contour>
  </outline>
</glyph>
<glyph name="V" format="1">
  <advance width="618"/>
  <unicode hex="0056"/>
  <outline>
    <contour>
      <point x="575" y="722" type="line"/>
      <point x="297" y="0" type="line"/>
      <point x="322" y="0" type="line"/>
      <point x="599" y="722" type="line"/>
    </contour>
    <contour>
      <point x="315" y="0" type="line"/>
      <point x="33" y="722" type="line"/>
      <point x="9" y="722" type="line"/>
      <point x="291" y="0" type="line"/>
    </contour>
  </outline>
</glyph>
<glyph name="backslash" format="1">
  <advance width="526"/>
  <unicode hex="005C"/>
  <outline>
    <contour>
      <point x="451" y="-68" type="line"/>
      <point x="59" y="844" type="line"/>
      <point x="80" y="844" type="line"/>
      <point x="472" y="-68" type="line"/>
    </contour>
  </outline>
</glyph>
<glyph name="i" format="1">
  <advance width="241"/>
  <unicode hex="0069"/>
  <outline>
    <contour>
      <point x="110" y="0" type="line"/>
      <point x="133" y="0" type="line"/>
      <point x="133" y="533" type="line"/>
      <point x="110" y="533" type="line"/>
    </contour>
    <contour>
      <point x="132" y="690" type="line"/>
      <point x="132" y="792" type="line"/>
      <point x="110" y="792" type="line"/>
      <point x="110" y="690" type="line"/>
    </contour>
  </outline>
</glyph>
<glyph name="n" format="1">
  <advance width="676"/>
  <unicode hex="006E"/>
  <outline>
    <contour>
      <point x="255" y="308" type="line"/>
      <point x="280" y="360"/>
      <point x="298" y="403"/>
      <point x="354" y="403" type="curve" smooth="yes"/>
      <point x="397" y="403"/>
      <point x="398" y="361"/>
      <point x="398" y="311" type="curve"/>
      <point x="398" y="0" type="line"/>
      <point x="542" y="0" type="line"/>
      <point x="542" y="334" type="line"/>
      <point x="542" y="464"/>
      <point x="513" y="542"/>
      <point x="396" y="542" type="curve" smooth="yes"/>
      <point x="289" y="542"/>
      <point x="258" y="456"/>
      <point x="222" y="349" type="curve"/>
    </contour>
    <contour>
      <point x="277" y="533" type="line"/>
      <point x="133" y="533" type="line"/>
      <point x="133" y="0" type="line"/>
      <point x="277" y="0" type="line"/>
    </contour>
  </outline>
</glyph>
<glyph name="sterling" format="1">
  <advance width="505"/>
  <unicode hex="00A3"/>
  <outline>
    <contour>
      <point x="433" y="1" type="line"/>
      <point x="433" y="23" type="line"/>
      <point x="29" y="23" type="line"/>
      <point x="29" y="1" type="line"/>
    </contour>
    <contour>
      <point x="386" y="367" type="line"/>
      <point x="386" y="388" type="line"/>
      <point x="65" y="388" type="line"/>
      <point x="65" y="367" type="line"/>
    </contour>
    <contour>
      <point x="432" y="640" type="curve"/>
      <point x="443" y="657" type="line"/>
      <point x="399" y="689"/>
      <point x="363" y="705"/>
      <point x="309" y="705" type="curve"/>
      <point x="160" y="705"/>
      <point x="125" y="555"/>
      <point x="163" y="375" type="curve" smooth="yes"/>
      <point x="203" y="184"/>
      <point x="184" y="22"/>
      <point x="29" y="22" type="curve"/>
      <point x="29" y="0" type="line"/>
      <point x="195" y="2"/>
      <point x="224" y="171"/>
      <point x="185" y="372" type="curve" smooth="yes"/>
      <point x="152" y="541"/>
      <point x="169" y="684"/>
      <point x="306" y="684" type="curve"/>
      <point x="357" y="684"/>
      <point x="391" y="671"/>
    </contour>
  </outline>
</glyph>
<glyph name="dieresis" format="1">
  <advance width="318"/>
  <unicode hex="00A8"/>
  <outline>
    <contour>
      <point x="225" y="681" type="line"/>
      <point x="203" y="681" type="line"/>
      <point x="203" y="579" type="line"/>
      <point x="225" y="579" type="line"/>
    </contour>
    <contour>
      <point x="108" y="579" type="line"/>
      <point x="108" y="681" type="line"/>
      <point x="86" y="681" type="line"/>
      <point x="86" y="579" type="line"/>
    </contour>
  </outline>
</glyph>
<glyph name="Thorn" format="1">
  <advance width="477"/>
  <unicode hex="00DE"/>
  <outline>
    <contour>
      <point x="62" y="701" type="line"/>
      <point x="187" y="701" type="line" smooth="yes"/>
      <point x="319" y="701"/>
      <point x="410" y="621"/>
      <point x="410" y="492" type="curve" smooth="yes"/>
      <point x="410" y="376"/>
      <point x="332" y="301"/>
      <point x="216" y="301" type="curve" smooth="yes"/>
      <point x="157" y="301"/>
      <point x="116" y="319"/>
      <point x="64" y="346" type="curve"/>
      <point x="57" y="327" type="line"/>
      <point x="108" y="300"/>
      <point x="156" y="280"/>
      <point x="214" y="280" type="curve" smooth="yes"/>
      <point x="345" y="282"/>
      <point x="432" y="365"/>
      <point x="432" y="494" type="curve" smooth="yes"/>
      <point x="432" y="634"/>
      <point x="333" y="722"/>
      <point x="190" y="722" type="curve" smooth="yes"/>
      <point x="62" y="722" type="line"/>
    </contour>
    <contour>
      <point x="47" y="722" type="line"/>
      <point x="47" y="0" type="line"/>
      <point x="69" y="0" type="line"/>
      <point x="69" y="722" type="line"/>
    </contour>
  </outline>
</glyph>
<glyph name="divide" format="1">
  <advance width="533"/>
  <unicode hex="00F7"/>
  <outline>
    <contour>
      <point x="495" y="243" type="line"/>
      <point x="495" y="265" type="line"/>
      <point x="40" y="265" type="line"/>
      <point x="40" y="243" type="line"/>
    </contour>
    <contour>
      <point x="241" y="394" type="line"/>
      <point x="286" y="394" type="line"/>
      <point x="286" y="440" type="line"/>
      <point x="241" y="440" type="line"/>
    </contour>
    <contour>
      <point x="241" y="107" type="line"/>
      <point x="241" y="61" type="line"/>
      <point x="286" y="61" type="line"/>
      <point x="286" y="107" type="line"/>
    </contour>
  </outline>
</glyph>
<glyph name="breve" format="1">
  <advance width="295"/>
  <unicode hex="02D8"/>
  <outline>
    <contour>
      <point x="262" y="947" type="line"/>
      <point x="262" y="879"/>
      <point x="218" y="846"/>
      <point x="146" y="846" type="curve" smooth="yes"/>
      <point x="76" y="846"/>
      <point x="34" y="880"/>
      <point x="34" y="947" type="curve"/>
      <point x="13" y="947" type="line"/>
      <point x="13" y="866"/>
      <point x="61" y="823"/>
      <point x="144" y="823" type="curve" smooth="yes"/>
      <point x="230" y="823"/>
      <point x="283" y="864"/>
      <point x="283" y="947" type="curve"/>
    </contour>
  </outline>
</glyph>
<glyph name="v_e" format="1">
  <advance width="787"/>
  <unicode hex="0904"/>
  <outline>
    <contour>
      <point x="179" y="386" type="line"/>
      <point x="318" y="386"/>
      <point x="424" y="337"/>
      <point x="424" y="212" type="curve" smooth="yes"/>
      <point x="428" y="104"/>
      <point x="350" y="44"/>
      <point x="236" y="48" type="curve" smooth="yes"/>
      <point x="163" y="48"/>
      <point x="116" y="72"/>
      <point x="56" y="114" type="curve"/>
      <point x="44" y="98" type="line"/>
      <point x="106" y="51"/>
      <point x="156" y="27"/>
      <point x="234" y="27" type="curve" smooth="yes"/>
      <point x="362" y="22"/>
      <point x="449" y="92"/>
      <point x="445" y="215" type="curve" smooth="yes"/>
      <point x="445" y="351"/>
      <point x="330" y="403"/>
      <point x="179" y="403" type="curve"/>
    </contour>
    <contour>
      <point x="797" y="700" type="line"/>
      <point x="797" y="722" type="line"/>
      <point x="514" y="722" type="line"/>
      <point x="514" y="700" type="line"/>
    </contour>
    <contour>
      <point x="646" y="710" type="line"/>
      <point x="646" y="0" type="line"/>
      <point x="668" y="0" type="line"/>
      <point x="668" y="710" type="line"/>
    </contour>
    <contour>
      <point x="652" y="403" type="line"/>
      <point x="510" y="336"/>
      <point x="399" y="374"/>
      <point x="244" y="399" type="curve"/>
      <point x="239" y="383" type="line"/>
      <point x="399" y="354"/>
      <point x="515" y="317"/>
      <point x="664" y="385" type="curve"/>
    </contour>
    <contour>
      <point x="179" y="407" type="curve"/>
      <point x="179" y="389" type="line"/>
      <point x="323" y="389"/>
      <point x="429" y="446"/>
      <point x="429" y="577" type="curve" smooth="yes"/>
      <point x="429" y="679"/>
      <point x="355" y="733"/>
      <point x="248" y="733" type="curve" smooth="yes"/>
      <point x="176" y="733"/>
      <point x="129" y="714"/>
      <point x="72" y="671" type="curve"/>
      <point x="86" y="655" type="line"/>
      <point x="138" y="694"/>
      <point x="180" y="713"/>
      <point x="245" y="713" type="curve" smooth="yes"/>
      <point x="341" y="713"/>
      <point x="408" y="666"/>
      <point x="407" y="575" type="curve" smooth="yes"/>
      <point x="406" y="456"/>
      <point x="309" y="407"/>
    </contour>
    <contour>
      <point x="645" y="716" type="curve"/>
      <point x="667" y="716" type="line"/>
      <point x="667" y="843"/>
      <point x="575" y="893"/>
      <point x="437" y="893" type="curve" smooth="yes"/>
      <point x="310" y="893"/>
      <point x="220" y="928"/>
      <point x="220" y="1041" type="curve"/>
      <point x="199" y="1041" type="line"/>
      <point x="199" y="915"/>
      <point x="296" y="872"/>
      <point x="436" y="872" type="curve" smooth="yes"/>
      <point x="560" y="872"/>
      <point x="645" y="829"/>
    </contour>
  </outline>
</glyph>
<glyph name="v_ao" format="1">
  <advance width="1020"/>
  <unicode hex="0911"/>
  <outline>
    <contour>
      <point x="908" y="994" type="line"/>
      <point x="908" y="898"/>
      <point x="850" y="849"/>
      <point x="752" y="849" type="curve" smooth="yes"/>
      <point x="655" y="849"/>
      <point x="599" y="899"/>
      <point x="599" y="994" type="curve"/>
      <point x="578" y="994" type="line"/>
      <point x="578" y="885"/>
      <point x="640" y="826"/>
      <point x="750" y="826" type="curve" smooth="yes"/>
      <point x="863" y="826"/>
      <point x="929" y="884"/>
      <point x="929" y="994" type="curve"/>
    </contour>
    <component base="v_aa"/>
  </outline>
</glyph>
<glyph name="daggerdbl" format="1">
  <advance width="351"/>
  <unicode hex="2021"/>
  <outline>
    <contour>
      <point x="341" y="97" type="line"/>
      <point x="341" y="119" type="line"/>
      <point x="18" y="119" type="line"/>
      <point x="18" y="97" type="line"/>
    </contour>
    <contour>
      <point x="341" y="549" type="line"/>
      <point x="341" y="571" type="line"/>
      <point x="18" y="571" type="line"/>
      <point x="18" y="549" type="line"/>
    </contour>
    <contour>
      <point x="168" y="722" type="line"/>
      <point x="168" y="-57" type="line"/>
      <point x="190" y="-57" type="line"/>
      <point x="190" y="722" type="line"/>
    </contour>
  </outline>
</glyph>
<glyph name="c_ddha" format="1">
  <advance width="573"/>
  <outline>
    <contour>
      <point x="426" y="522" type="line" smooth="yes"/>
      <point x="426" y="544" type="line"/>
      <point x="325" y="544" type="line" smooth="yes"/>
      <point x="151" y="544"/>
      <point x="27" y="448"/>
      <point x="27" y="270" type="curve" smooth="yes"/>
      <point x="27" y="101"/>
      <point x="134" y="-1"/>
      <point x="297" y="-1" type="curve" smooth="yes"/>
      <point x="429" y="-1"/>
      <point x="537" y="44"/>
      <point x="537" y="164" type="curve" smooth="yes"/>
      <point x="537" y="254"/>
      <point x="493" y="309"/>
      <point x="391" y="309" type="curve" smooth="yes"/>
      <point x="289" y="309"/>
      <point x="249" y="241"/>
      <point x="249" y="166" type="curve" smooth="yes"/>
      <point x="249" y="98"/>
      <point x="285" y="54"/>
      <point x="363" y="9" type="curve"/>
      <point x="377" y="26" type="line"/>
      <point x="301" y="67"/>
      <point x="271" y="109"/>
      <point x="271" y="166" type="curve" smooth="yes"/>
      <point x="271" y="224"/>
      <point x="297" y="287"/>
      <point x="391" y="287" type="curve" smooth="yes"/>
      <point x="485" y="287"/>
      <point x="515" y="241"/>
      <point x="515" y="164" type="curve" smooth="yes"/>
      <point x="515" y="53"/>
      <point x="415" y="21"/>
      <point x="297" y="21" type="curve" smooth="yes"/>
      <point x="148" y="21"/>
      <point x="49" y="115"/>
      <point x="49" y="270" type="curve" smooth="yes"/>
      <point x="49" y="434"/>
      <point x="164" y="522"/>
      <point x="325" y="522" type="curve" smooth="yes"/>
    </contour>
    <contour>
      <point x="583" y="700" type="line"/>
      <point x="583" y="722" type="line"/>
      <point x="-10" y="722" type="line"/>
      <point x="-10" y="700" type="line"/>
    </contour>
    <contour>
      <point x="415" y="711" type="line"/>
      <point x="415" y="522" type="line"/>
      <point x="437" y="522" type="line"/>
      <point x="437" y="711" type="line"/>
    </contour>
  </outline>
</glyph>
<glyph name="c_dha" format="1">
  <advance width="660"/>
  <outline>
    <contour>
      <point x="285" y="525" type="line"/>
      <point x="323" y="538"/>
      <point x="338" y="569"/>
      <point x="338" y="610" type="curve" smooth="yes"/>
      <point x="338" y="671"/>
      <point x="290" y="701"/>
      <point x="225.0" y="701.0" type="curve" smooth="yes"/>
      <point x="153" y="701"/>
      <point x="106" y="658"/>
      <point x="105" y="587" type="curve" smooth="yes"/>
      <point x="104" y="469"/>
      <point x="220" y="441"/>
      <point x="357" y="441" type="curve"/>
      <point x="357" y="423" type="line"/>
      <point x="208" y="423"/>
      <point x="83" y="456"/>
      <point x="83" y="586" type="curve" smooth="yes"/>
      <point x="83" y="670"/>
      <point x="141" y="721"/>
      <point x="227.0" y="721.0" type="curve" smooth="yes"/>
      <point x="303" y="721"/>
      <point x="358" y="683"/>
      <point x="358" y="612" type="curve" smooth="yes"/>
      <point x="358" y="562"/>
      <point x="340" y="525"/>
      <point x="294" y="509" type="curve"/>
    </contour>
    <contour>
      <point x="670" y="700" type="line"/>
      <point x="519" y="700" type="line"/>
      <point x="519" y="722" type="line"/>
      <point x="670" y="722" type="line"/>
    </contour>
    <contour>
      <point x="357" y="423" type="line"/>
      <point x="217" y="423"/>
      <point x="98" y="393"/>
      <point x="97" y="271" type="curve" smooth="yes"/>
      <point x="96" y="171"/>
      <point x="185" y="130"/>
      <point x="297" y="130" type="curve" smooth="yes"/>
      <point x="409" y="130"/>
      <point x="482" y="189"/>
      <point x="524" y="293" type="curve"/>
      <point x="538" y="277" type="line"/>
      <point x="495" y="167"/>
      <point x="415" y="108"/>
      <point x="295" y="108" type="curve" smooth="yes"/>
      <point x="171" y="108"/>
      <point x="75" y="157"/>
      <point x="75" y="269" type="curve" smooth="yes"/>
      <point x="75" y="403"/>
      <point x="203" y="441"/>
      <point x="357" y="441" type="curve"/>
    </contour>
    <contour>
      <point x="519" y="710" type="line"/>
      <point x="541" y="710" type="line"/>
      <point x="541" y="0" type="line"/>
      <point x="519" y="0" type="line"/>
    </contour>
    <contour>
      <point x="505" y="660" type="move" name="DVAnchor3"/>
    </contour>
  </outline>
</glyph>
<glyph name="ddadeva_viramadeva_ddadeva" format="1">
  <advance width="494"/>
  <outline>
    <contour>
      <point x="157" y="34" type="move"/>
      <point x="120" y="61"/>
      <point x="79" y="74"/>
      <point x="79" y="120" type="curve"/>
      <point x="79" y="163"/>
      <point x="106" y="187"/>
      <point x="141" y="213" type="curve"/>
      <point x="123" y="224" type="line"/>
      <point x="86" y="194"/>
      <point x="57" y="169"/>
      <point x="57" y="122" type="curve"/>
      <point x="57" y="64"/>
      <point x="105" y="44"/>
      <point x="155" y="12" type="curve"/>
    </contour>
    <contour>
      <point x="155" y="12" type="move"/>
      <point x="292" y="81"/>
      <point x="416" y="96"/>
      <point x="416" y="-10" type="curve" smooth="yes"/>
      <point x="416" y="-87"/>
      <point x="359" y="-130"/>
      <point x="278" y="-130" type="curve" smooth="yes"/>
      <point x="178" y="-130"/>
      <point x="111" y="-90"/>
      <point x="44" y="-15" type="curve"/>
      <point x="29" y="-30" type="line"/>
      <point x="100" y="-109"/>
      <point x="171" y="-151"/>
      <point x="277" y="-151" type="curve" smooth="yes"/>
      <point x="371" y="-151"/>
      <point x="437" y="-99"/>
      <point x="437" y="-8" type="curve" smooth="yes"/>
      <point x="435" y="106"/>
      <point x="302" y="112"/>
      <point x="157" y="34" type="curve"/>
    </contour>
    <contour>
      <point x="355" y="711" type="line"/>
      <point x="355" y="551" type="line"/>
      <point x="377" y="551" type="line"/>
      <point x="377" y="711" type="line"/>
    </contour>
    <contour>
      <point x="504" y="700" type="line"/>
      <point x="504" y="722" type="line"/>
      <point x="-10" y="722" type="line"/>
      <point x="-10" y="700" type="line"/>
    </contour>
    <contour>
      <point x="155" y="337" type="move"/>
      <point x="296" y="408"/>
      <point x="423" y="411"/>
      <point x="423" y="302" type="curve" smooth="yes"/>
      <point x="423" y="227"/>
      <point x="360" y="193"/>
      <point x="278" y="193" type="curve" smooth="yes"/>
      <point x="180" y="193"/>
      <point x="115" y="231"/>
      <point x="44" y="300" type="curve"/>
      <point x="29" y="285" type="line"/>
      <point x="104" y="212"/>
      <point x="173" y="172"/>
      <point x="277" y="172" type="curve" smooth="yes"/>
      <point x="373" y="172"/>
      <point x="444" y="215"/>
      <point x="444" y="304" type="curve" smooth="yes"/>
      <point x="442" y="423"/>
      <point x="305" y="438"/>
      <point x="157" y="359" type="curve"/>
    </contour>
    <contour>
      <point x="157" y="359" type="move"/>
      <point x="115" y="390"/>
      <point x="79" y="414"/>
      <point x="79" y="465" type="curve"/>
      <point x="79" y="532"/>
      <point x="143" y="551"/>
      <point x="220" y="551" type="curve"/>
      <point x="367" y="551" type="line"/>
      <point x="367" y="571" type="line"/>
      <point x="223" y="571" type="line"/>
      <point x="132" y="571"/>
      <point x="57" y="547"/>
      <point x="57" y="467" type="curve"/>
      <point x="57" y="403"/>
      <point x="100" y="372"/>
      <point x="155" y="337" type="curve"/>
    </contour>
    <contour>
      <point x="359" y="-113" type="move" name="DVAnchor0"/>
    </contour>
  </outline>
</glyph>
